<?xml version="1.0" encoding="UTF-8" standalone="no"?>
<svg
   xmlns:dc="http://purl.org/dc/elements/1.1/"
   xmlns:cc="http://creativecommons.org/ns#"
   xmlns:rdf="http://www.w3.org/1999/02/22-rdf-syntax-ns#"
   xmlns:svg="http://www.w3.org/2000/svg"
   xmlns="http://www.w3.org/2000/svg"
   id="svg8"
   version="1.1"
   viewBox="0 0 130.90459 15.324666"
   height="15.324666mm"
   width="130.90459mm">
  <defs
     id="defs2" />
  <metadata
     id="metadata5">
    <rdf:RDF>
      <cc:Work
         rdf:about="">
        <dc:format>image/svg+xml</dc:format>
        <dc:type
           rdf:resource="http://purl.org/dc/dcmitype/StillImage" />
        <dc:title></dc:title>
      </cc:Work>
    </rdf:RDF>
  </metadata>
  <g
     transform="translate(-39.868928,-47.647596)"
     id="layer1">
    <g
       id="text3701"
       style="font-style:normal;font-variant:normal;font-weight:normal;font-stretch:normal;font-size:10.58333302px;line-height:1.25;font-family:Ubuntu;-inkscape-font-specification:Ubuntu;letter-spacing:0px;word-spacing:0px;fill:#000000;fill-opacity:1;stroke:none;stroke-width:0.26458332"
       aria-label="EVENTPLACE">
      <path
         id="path3764"
         style="font-style:normal;font-variant:normal;font-weight:bold;font-stretch:normal;font-family:Ubuntu;-inkscape-font-specification:'Ubuntu Bold';fill:#d40000"
         d="M 39.868928,62.654762 V 47.986263 h 9.905999 v 2.772833 h -6.603999 v 2.878667 h 5.863166 v 2.709333 h -5.863166 v 3.534833 h 7.090833 v 2.772833 z" />
      <path
         id="path3766"
         style="font-style:normal;font-variant:normal;font-weight:bold;font-stretch:normal;font-family:Ubuntu;-inkscape-font-specification:'Ubuntu Bold';fill:#d40000"
         d="m 57.293063,62.654762 q -0.867834,-1.8415 -1.7145,-3.831166 -0.846667,-1.989667 -1.608667,-3.937 -0.762,-1.947333 -1.418167,-3.725333 -0.635,-1.778 -1.100666,-3.175 h 3.640666 q 0.423334,1.27 0.910167,2.751666 0.508,1.4605 1.016,2.921 0.529167,1.4605 1.016,2.794 0.486833,1.3335 0.910167,2.307167 0.402166,-0.973667 0.889,-2.307167 0.507999,-1.3335 1.015999,-2.794 0.529167,-1.4605 1.016,-2.921 0.508,-1.481666 0.931334,-2.751666 h 3.513666 q -0.486833,1.397 -1.121833,3.175 -0.635,1.778 -1.397,3.725333 -0.762,1.947333 -1.608667,3.937 -0.846666,1.989666 -1.7145,3.831166 z" />
      <path
         id="path3768"
         style="font-style:normal;font-variant:normal;font-weight:bold;font-stretch:normal;font-family:Ubuntu;-inkscape-font-specification:'Ubuntu Bold';fill:#d40000"
         d="M 68.228953,62.654762 V 47.986263 h 9.906 v 2.772833 h -6.604 v 2.878667 h 5.863166 v 2.709333 h -5.863166 v 3.534833 h 7.090833 v 2.772833 z" />
      <path
         id="path3770"
         style="font-style:normal;font-variant:normal;font-weight:bold;font-stretch:normal;font-family:Ubuntu;-inkscape-font-specification:'Ubuntu Bold';fill:#d40000"
         d="m 90.887209,62.654762 q -1.418167,-2.518833 -3.069167,-4.974166 -1.651,-2.455334 -3.513667,-4.6355 v 9.609666 H 81.044709 V 47.986263 h 2.688166 q 0.6985,0.6985 1.545167,1.7145 0.846667,1.016 1.7145,2.180166 0.889,1.143 1.756833,2.391834 0.867834,1.227666 1.629834,2.370666 v -8.657166 h 3.280833 v 14.668499 z" />
      <path
         id="path3772"
         style="font-style:normal;font-variant:normal;font-weight:bold;font-stretch:normal;font-family:Ubuntu;-inkscape-font-specification:'Ubuntu Bold';fill:#d40000"
         d="m 107.9234,47.986263 v 2.815166 h -4.42383 v 11.853333 h -3.302 V 50.801429 h -4.423838 v -2.815166 z" />
      <path
         id="path3774"
         style="font-size:21.16666603px;stroke-width:0.26458332"
         d="m 114.04652,47.838096 q 3.09033,0 4.74133,1.185333 1.67217,1.164167 1.67217,3.4925 0,1.27 -0.46567,2.180167 -0.4445,0.889 -1.31233,1.4605 -0.84667,0.550333 -2.07434,0.804333 -1.22766,0.254 -2.77283,0.254 h -1.62983 v 5.439833 h -2.05317 V 48.197929 q 0.86783,-0.211666 1.92617,-0.275166 1.0795,-0.08467 1.9685,-0.08467 z m 0.16933,1.799167 q -1.31233,0 -2.01083,0.0635 v 5.757333 h 1.54516 q 1.05834,0 1.905,-0.127 0.84667,-0.148167 1.41817,-0.465667 0.59267,-0.338666 0.91017,-0.910166 0.3175,-0.5715 0.3175,-1.4605 0,-0.846667 -0.33867,-1.397 -0.3175,-0.550334 -0.889,-0.867834 -0.55033,-0.338666 -1.29117,-0.465666 -0.74083,-0.127 -1.56633,-0.127 z" />
      <path
         id="path3776"
         style="font-size:21.16666603px;stroke-width:0.26458332"
         d="m 131.83544,60.876762 v 1.778 h -8.8265 V 47.986263 h 2.05317 v 12.890499 z" />
      <path
         id="path3778"
         style="font-size:21.16666603px;stroke-width:0.26458332"
         d="m 144.38463,62.654762 q -0.35983,-0.9525 -0.67733,-1.862666 -0.3175,-0.931334 -0.65617,-1.883834 h -6.64633 l -1.3335,3.7465 h -2.13783 q 0.84666,-2.328333 1.5875,-4.296833 0.74083,-1.989667 1.43933,-3.767666 0.71967,-1.778 1.41817,-3.386667 0.6985,-1.629833 1.4605,-3.217333 h 1.88383 q 0.762,1.5875 1.4605,3.217333 0.6985,1.608667 1.397,3.386667 0.71967,1.777999 1.4605,3.767666 0.74083,1.9685 1.5875,4.296833 z m -1.92616,-5.439833 q -0.67734,-1.8415 -1.35467,-3.556 -0.65617,-1.735666 -1.37583,-3.323166 -0.74084,1.5875 -1.41817,3.323166 -0.65617,1.7145 -1.31233,3.556 z" />
      <path
         id="path3780"
         style="font-size:21.16666603px;stroke-width:0.26458332"
         d="m 154.49337,62.972262 q -1.54517,0 -2.81517,-0.508 -1.27,-0.508 -2.18017,-1.481666 -0.91016,-0.973667 -1.41816,-2.391834 -0.48684,-1.439333 -0.48684,-3.280833 0,-1.8415 0.55034,-3.259666 0.5715,-1.439334 1.524,-2.413 0.9525,-0.973667 2.2225,-1.481667 1.27,-0.508 2.70933,-0.508 0.91017,0 1.62983,0.127 0.74084,0.127 1.27,0.296333 0.55034,0.169334 0.889,0.338667 0.33867,0.169333 0.46567,0.254 l -0.59267,1.693333 q -0.1905,-0.127 -0.55033,-0.275166 -0.35983,-0.148167 -0.8255,-0.296334 -0.4445,-0.148166 -0.99483,-0.232833 -0.52917,-0.105833 -1.0795,-0.105833 -1.16417,0 -2.0955,0.402166 -0.93134,0.402167 -1.5875,1.164167 -0.65617,0.762 -1.016,1.862667 -0.33867,1.0795 -0.33867,2.434166 0,1.312333 0.29633,2.391833 0.3175,1.0795 0.93134,1.862667 0.61383,0.762 1.524,1.185333 0.93133,0.423334 2.159,0.423334 1.41816,0 2.3495,-0.296334 0.93133,-0.296333 1.397,-0.529166 l 0.52916,1.693333 q -0.14816,0.105833 -0.52916,0.275167 -0.381,0.148166 -0.9525,0.296333 -0.5715,0.148167 -1.3335,0.254 -0.762,0.105833 -1.651,0.105833 z" />
      <path
         id="path3782"
         style="font-size:21.16666603px;stroke-width:0.26458332"
         d="M 161.29084,62.654762 V 47.986263 h 8.9535 v 1.756833 h -6.90033 v 4.360333 h 6.13833 v 1.7145 h -6.13833 v 5.08 h 7.4295 v 1.756833 z" />
    </g>
  </g>
</svg>
